PathFileType	4	(X/Y/Z)	Patient4_TMGait_0pt6_01_right_45.trc.trc
DataRate	CameraRate	NumFrames	NumMarkers	Units	OrigDataRate	OrigDataStartFrame	OrigNumFrames
80.924855491329	80.924855491329	6	33	mm	80.924855491329	53	       141
Frame#	Time	Sacral			L.Shoulder			Chest			R.Shoulder			Neck			R.ASIS			L.ASIS			R.Thigh.Superior			R.Thigh.Lateral			R.Thigh.Inferior			R.Patella			L.Thigh.Superior			L.Thigh.Lateral			L.Thigh.Inferior			L.Patella			L.Shank.Superior			L.Shank.Lateral			L.Shank.Inferior			R.Shank.Superior			R.Shank.Lateral			R.Shank.Inferior			R.Heel			R.Midfoot.Superior			R.Midfoot.Lateral			R.Toe			L.Heel			L.Midfoot.Lateral			L.Midfoot.Superior			L.Toe			L.Elbow			L.Wrist			R.Elbow			R.Wrist			
		X1	Y1	Z1	X2	Y2	Z2	X3	Y3	Z3	X4	Y4	Z4	X5	Y5	Z5	X6	Y6	Z6	X7	Y7	Z7	X8	Y8	Z8	X9	Y9	Z9	X10	Y10	Z10	X11	Y11	Z11	X12	Y12	Z12	X13	Y13	Z13	X14	Y14	Z14	X15	Y15	Z15	X16	Y16	Z16	X17	Y17	Z17	X18	Y18	Z18	X19	Y19	Z19	X20	Y20	Z20	X21	Y21	Z21	X22	Y22	Z22	X23	Y23	Z23	X24	Y24	Z24	X25	Y25	Z25	X26	Y26	Z26	X27	Y27	Z27	X28	Y28	Z28	X29	Y29	Z29	X30	Y30	Z30	X31	Y31	Z31	X32	Y32	Z32	X33	Y33	Z33	

53	54.752571428571	766.484668864428	1006.971836620900	502.769698967170	912.811751858183	1439.276154942950	313.460136905271	1034.111195800868	1370.675787401876	461.323730240282	969.141048664580	1439.352715111326	643.858231170756	911.352840525559	1497.047474730615	467.863198539541	1000.363544541244	945.553902946021	602.172555302017	967.206861761420	969.585701919460	330.189837729918	1024.294747210841	737.807517441626	566.800607974427	937.371186469967	633.022028425855	629.497073453581	1004.629597735661	577.339835324998	545.724214630325	996.939496535972	490.659713334755	549.964844477687	1060.322000512888	792.313557421198	359.703900644447	1022.280885705526	663.934311625077	280.536458832223	1129.160619718300	607.183708998823	340.211538034893	1151.218246673567	523.710371955230	331.510334653854	1102.854262318698	448.635469337315	324.005923761070	980.324069384492	366.069669116100	278.305535132557	1011.511089320660	238.902945995745	330.885977808899	967.797021653040	402.367079634372	555.239846146703	893.973598338310	298.799983985644	613.274704669138	934.398138057653	205.044014015706	547.649820155728	797.238056886854	41.628425672874	512.647797156922	967.808311294757	96.639124741399	550.693411338176	879.504277530298	36.340130996848	588.593852786724	1087.701932399866	45.033517842535	579.968389530171	854.604311850402	113.140725721757	372.996100203599	919.218867480257	95.099336241994	287.775704853602	1016.002459437222	136.795489991907	306.308618909709	1124.794204440594	60.140525638539	267.874832402630	896.237361484728	1078.961930299997	209.860756687341	1075.679776073117	889.489899531428	210.973884409739	972.184231197304	1091.335541195653	770.024045239059	1137.037669628736	890.809821126027	749.815735126594	
54	54.764928571429	765.394288460214	1007.314686146614	503.749153055877	911.994752079320	1439.000848019516	313.844488504763	1033.909074716277	1370.244719486788	461.100413394903	970.128226125142	1439.205958190584	644.000144075119	911.348336013909	1496.887591083762	468.221004243596	999.494944595123	945.001081264313	601.862920833227	965.048693915020	969.678975069387	330.300687004823	1021.098746970654	736.911733725937	565.959672220322	933.557435551488	632.867304683156	629.589884304264	999.386328470135	576.561061784603	545.314994087981	990.863422508781	490.205127596881	549.674509366305	1058.517152417147	793.197418260619	360.350178491609	1021.586844346490	664.753720528372	280.495371200481	1127.716737385026	608.327755502765	341.474972998166	1151.419359658461	526.866002430760	332.334110508738	1107.192808871462	451.126297860991	323.942865667753	990.821123764062	360.876244259500	277.227056303947	1030.489992062150	235.657401315072	329.424755601902	961.476623217338	402.047082229071	555.045654100611	887.579155180878	298.682488854973	613.360808839345	927.383168574019	204.832918350170	547.529356370553	789.782742222959	41.632266524152	512.635867153632	960.341189220840	96.560838509245	550.653947422331	872.051495671272	36.331543760366	588.604551868616	1080.247906290465	44.867866605655	579.980915016400	882.547787386388	99.430411956471	370.413466859816	948.665945727226	85.910209271548	285.518241342193	1042.318777840288	133.889547160839	304.652167256446	1156.167753425314	64.590824264448	266.798416262628	891.647181080598	1078.180379551060	211.984477131386	1057.223899403019	876.332445113538	212.250818294788	981.576187085888	1091.285549843143	769.858848240072	1160.304031126796	904.066208207119	745.614947368310	
55	54.777285714286	764.408448423222	1007.553982198059	504.557858756190	911.369812961816	1438.652495680249	314.121560917104	1033.790437816610	1369.704597472864	460.828412595156	971.089746538975	1438.900981972827	644.066458953613	911.408672595694	1496.626500396383	468.504634037585	998.708475104134	944.414008504337	601.516301979053	963.062258756721	969.486265869953	330.256166815327	1018.053975991634	735.971468842106	565.392616569846	929.736327155564	632.676648940546	629.720234420674	994.283633624465	575.748095769801	545.087635985222	984.906579547152	489.712562660609	549.508699059291	1056.349230759214	793.426700236785	360.811083928202	1020.212788269613	665.044872086937	280.252310749751	1125.513491362869	608.768422278391	342.553731317246	1150.796773703972	529.507917497255	332.980309207442	1110.755966655738	453.419198701892	323.800441243889	1001.120936705982	355.826461741989	276.076898299542	1049.119854910032	233.159000233428	328.095151321056	955.215097025923	401.715815217229	554.938518044302	881.196119574525	298.572767978177	613.500611012367	920.374314232698	204.624243926803	547.465187503704	782.325385525887	41.647551518703	512.636111760529	952.883321439181	96.479502423621	550.633212063045	864.598978426317	36.323494719244	588.619747975453	1072.798280829195	44.676419450652	579.996198787101	910.790366861808	87.076938985006	368.024679809071	978.272882267559	78.055621548082	283.557410591813	1068.378559699799	132.101561139492	303.288762880777	1186.847696604522	70.358612586591	266.289097182031	887.523129181066	1077.441418876845	213.829463765310	1038.136230457837	864.231319880633	213.469171146591	991.009497611524	1091.273678262593	769.281661479684	1182.727021590311	918.648245498252	741.002813356099	
56	54.789642857143	763.537403875464	1007.689836068776	505.196490114057	910.946550044198	1438.242313273097	314.283526621068	1033.757607080789	1369.070992328347	460.509770708432	972.008784580205	1438.453820196985	644.052029550887	911.531160395386	1496.276858439141	468.701464169279	998.024781770718	943.815261038583	601.136847149104	961.269396688294	969.039135343405	330.070066617140	1015.173267525625	734.991309886485	565.099878115973	925.902606216976	632.460140205941	629.876678343749	989.314501737080	574.904979161849	545.035935702695	979.059048484304	489.186461177521	549.456936906756	1053.866220175991	793.039904431639	361.056556770527	1018.246146208393	664.842415680159	279.786472995107	1122.717292631273	608.592387935756	343.362518598900	1149.504608427482	531.670759577165	333.417023496549	1113.626418612533	455.529033171474	323.590414790574	1011.156416593114	351.072081726147	274.878197648227	1067.133116437306	231.505233933071	326.949055542515	949.003068944381	401.383296469804	554.913844568149	874.810940656170	298.481618093971	613.687571182383	913.370422504571	204.427035062092	547.456485442025	774.864157416388	41.674633386641	512.652928981952	945.434846818121	96.397289374259	550.634151164219	857.145342799151	36.316225835519	588.641554570817	1065.354321331544	44.463978237291	580.015928572235	938.801610780156	76.387297810305	365.886931367001	1007.544009465172	71.691618524928	281.974004227158	1093.779602259465	131.478904960109	302.286230074652	1216.380792599266	77.309757920717	266.476528286403	883.815308235343	1076.756364478837	215.371464551937	1018.608403872598	853.383347707541	214.615859816628	1000.502945212495	1091.316327848816	768.276870080153	1204.117491987405	934.400833105145	736.051895667341	
57	54.802000000000	762.789408817925	1007.725549204419	505.667307883027	910.725935351615	1437.783297273266	314.324502069042	1033.810021805612	1368.362303941639	460.145719257916	972.872831548399	1437.888166675559	643.949990247283	911.710317558630	1495.852488864457	468.799243250071	997.458142918122	943.219297800013	600.722417940656	959.683244756351	968.377345674780	329.757493042372	1012.458385807786	733.976970101257	565.042593781122	922.061220965166	632.229022663956	630.039742786840	984.466756795439	574.038206834340	545.129647394592	973.312067462175	488.631673518222	549.495011329836	1051.146095210691	792.110530572853	361.066087588881	1015.805105412846	664.200877750820	279.097621466191	1119.527106454724	607.908173004764	343.832338918947	1147.714579178877	533.392182815885	333.631609472313	1115.898687866158	457.457750656786	323.325775341890	1020.814543976143	346.729432276887	273.680575668748	1084.247248095974	230.707876524344	326.020615406436	942.835887984065	401.059321639637	554.957432539248	868.415718224479	298.419355485268	613.911683086801	906.370944715693	204.249397243703	547.497849190849	767.397999953763	41.713553787411	512.689038554971	937.995314864876	96.316358753726	550.657699127262	849.689439703659	36.309915834221	588.671680220734	1057.916818104297	44.235650192875	580.040483945757	966.001503689310	67.540514550798	364.067764816523	1035.915471386136	66.849151486857	280.829432166279	1118.090980691268	131.954531628051	301.670610757412	1244.301009525742	85.172347388172	267.386003401387	880.443871031577	1076.141246630652	216.591795508019	998.865435648717	843.938710208086	215.670566561432	1010.062441061450	1091.443526802440	766.837193610616	1224.311526914390	951.139059417900	730.839099126695	
58	54.814357142857	762.171913908393	1007.666942254284	505.972148581159	910.699967128899	1437.288905298706	314.240931693444	1033.944628773303	1367.597729671047	459.736030064054	973.675042982146	1437.232247607054	643.752027074636	911.938615649241	1495.366455369107	468.787564040040	997.015590338313	942.630977064404	600.266320581604	958.311970058811	967.543742193736	329.331961601027	1009.901770923871	732.934888266317	565.151535910693	918.227327381034	631.993956877869	630.185044244896	979.728286383060	573.155736656476	545.320789640492	967.662375093660	488.052139135595	549.589076306820	1048.298659474973	790.743444077468	360.830613217556	1013.029451733214	663.185464355698	278.214252248246	1116.160481267018	606.835037196038	343.918596616184	1145.607879825059	534.705630947842	333.629509972839	1117.670316595071	459.189362968179	323.019495088221	1029.936454177557	342.870058627575	272.560668551904	1100.175068069173	230.690062792318	325.326898347558	936.717390721544	400.750995913227	555.047881392453	862.010919687351	298.394863691073	614.160705183986	899.377619323528	204.097249721287	547.580337264163	759.926808178179	41.764297031403	512.745248659248	930.564172711211	96.238622714906	550.703001561332	842.230475853370	36.304691423513	588.711226903271	1050.485801481027	43.995881951886	580.069118587241	991.790086498609	60.577075091339	362.651347487638	1062.773920332730	63.437859159520	280.164884869009	1140.865925416554	133.352056210623	301.425253525717	1270.138026461904	93.553180196232	268.919891172819	877.302740180016	1075.616892159565	217.476651882951	979.155765252484	835.991333038629	216.609438870165	1019.677948012362	1091.694566042023	764.965361963415	1243.175761964460	968.655012112338	725.442490472007	
